# xmcd CD database file
#
# Track frame offsets:
#	150
#	16590
#	38625
#
# Disc length: 775 seconds
#
# Revision: 0
# Processed by: cddbd v1.4PL0 Copyright (c) Steve Scherf et al.
# Submitted via: CDex 1.50Beta7
#
DISCID=12030503
DTITLE=Orbina - Orbina (single)
DYEAR=1993
DGENRE=Blues
TTITLE0=Orbina
TTITLE1=Oskala Máhte Ole Johan
TTITLE2=Larina
EXTD=YEAR: 1993
EXTT0=
EXTT1=
EXTT2=
PLAYORDER=
